<mxfile host="app.diagrams.net" agent="Mozilla/5.0 (Windows NT 10.0; Win64; x64) AppleWebKit/537.36 (KHTML, like Gecko) Chrome/139.0.0.0 Safari/537.36" version="28.1.1">
  <diagram id="ReUGey9JU-47vjc4kebB" name="หน้า-1">
    <mxGraphModel dx="872" dy="431" grid="1" gridSize="10" guides="1" tooltips="1" connect="1" arrows="1" fold="1" page="1" pageScale="1" pageWidth="850" pageHeight="1100" math="0" shadow="0">
      <root>
        <mxCell id="0" />
        <mxCell id="1" parent="0" />
        <mxCell id="C-jSXHrrum_sfg-wVP6t-53" style="edgeStyle=orthogonalEdgeStyle;rounded=0;orthogonalLoop=1;jettySize=auto;html=1;entryX=0.5;entryY=0;entryDx=0;entryDy=0;" edge="1" parent="1" source="3" target="44">
          <mxGeometry relative="1" as="geometry" />
        </mxCell>
        <mxCell id="3" value="เริ่มต้น" style="html=1;dashed=0;whiteSpace=wrap;shape=mxgraph.dfd.start" parent="1" vertex="1">
          <mxGeometry x="393" y="20" width="80" height="30" as="geometry" />
        </mxCell>
        <mxCell id="4" value="จบเกม" style="html=1;dashed=0;whiteSpace=wrap;shape=mxgraph.dfd.start" parent="1" vertex="1">
          <mxGeometry x="385" y="1370" width="80" height="30" as="geometry" />
        </mxCell>
        <mxCell id="7" value="" style="edgeStyle=none;html=1;" parent="1" source="9" target="11" edge="1">
          <mxGeometry relative="1" as="geometry" />
        </mxCell>
        <mxCell id="8" value="" style="edgeStyle=none;html=1;" parent="1" source="9" target="13" edge="1">
          <mxGeometry relative="1" as="geometry" />
        </mxCell>
        <mxCell id="9" value="ค่าที่ได้รับมาเป็น&lt;div&gt;1 หรือ -1 หรือไม่&lt;/div&gt;" style="rhombus;whiteSpace=wrap;html=1;" parent="1" vertex="1">
          <mxGeometry x="373" y="240" width="120" height="110" as="geometry" />
        </mxCell>
        <mxCell id="11" value="แสดง&lt;div&gt;กรอก 1 หรือ -1&lt;/div&gt;" style="shape=parallelogram;perimeter=parallelogramPerimeter;whiteSpace=wrap;html=1;fixedSize=1;" parent="1" vertex="1">
          <mxGeometry x="560" y="265" width="120" height="60" as="geometry" />
        </mxCell>
        <mxCell id="12" value="" style="edgeStyle=none;html=1;" parent="1" source="13" target="17" edge="1">
          <mxGeometry relative="1" as="geometry" />
        </mxCell>
        <mxCell id="13" value="มีคะเเนนอยู่ 100" style="shape=parallelogram;perimeter=parallelogramPerimeter;whiteSpace=wrap;html=1;fixedSize=1;" parent="1" vertex="1">
          <mxGeometry x="374" y="400" width="120" height="60" as="geometry" />
        </mxCell>
        <mxCell id="14" value="ไม่" style="text;html=1;align=center;verticalAlign=middle;whiteSpace=wrap;rounded=0;" parent="1" vertex="1">
          <mxGeometry x="488" y="290" width="60" height="30" as="geometry" />
        </mxCell>
        <mxCell id="15" value="จริง" style="text;html=1;align=center;verticalAlign=middle;whiteSpace=wrap;rounded=0;" parent="1" vertex="1">
          <mxGeometry x="380" y="360" width="60" height="30" as="geometry" />
        </mxCell>
        <mxCell id="16" value="" style="edgeStyle=none;html=1;" parent="1" source="23" target="25" edge="1">
          <mxGeometry relative="1" as="geometry" />
        </mxCell>
        <mxCell id="17" value="สุ่มตัวเลข 1-100&lt;div&gt;เงื่อนไข = จริง&lt;/div&gt;" style="rounded=0;whiteSpace=wrap;html=1;" parent="1" vertex="1">
          <mxGeometry x="376.5" y="500" width="120" height="60" as="geometry" />
        </mxCell>
        <mxCell id="18" style="edgeStyle=none;html=1;entryX=0;entryY=0.5;entryDx=0;entryDy=0;" parent="1" source="20" target="23" edge="1">
          <mxGeometry relative="1" as="geometry">
            <Array as="points">
              <mxPoint x="320" y="1195" />
              <mxPoint x="320" y="880" />
              <mxPoint x="320" y="720" />
              <mxPoint x="320" y="600" />
            </Array>
          </mxGeometry>
        </mxCell>
        <mxCell id="19" value="" style="edgeStyle=none;html=1;" parent="1" source="20" target="45" edge="1">
          <mxGeometry relative="1" as="geometry" />
        </mxCell>
        <mxCell id="20" value="เงื่อนไขเป็นไปตาม&lt;div&gt;ที่เกม&lt;/div&gt;" style="rhombus;whiteSpace=wrap;html=1;" parent="1" vertex="1">
          <mxGeometry x="368" y="1150" width="132" height="85" as="geometry" />
        </mxCell>
        <mxCell id="21" value="ไม่จริง" style="text;html=1;align=center;verticalAlign=middle;whiteSpace=wrap;rounded=0;rotation=0;" parent="1" vertex="1">
          <mxGeometry x="375" y="1230" width="60" height="30" as="geometry" />
        </mxCell>
        <mxCell id="22" value="" style="edgeStyle=none;html=1;" parent="1" source="23" target="25" edge="1">
          <mxGeometry relative="1" as="geometry" />
        </mxCell>
        <mxCell id="24" value="" style="edgeStyle=none;html=1;" parent="1" source="25" target="33" edge="1">
          <mxGeometry relative="1" as="geometry" />
        </mxCell>
        <mxCell id="25" value="กรอกตัวเลข" style="shape=parallelogram;perimeter=parallelogramPerimeter;whiteSpace=wrap;html=1;fixedSize=1;" parent="1" vertex="1">
          <mxGeometry x="371.5" y="640" width="130" height="60" as="geometry" />
        </mxCell>
        <mxCell id="26" value="" style="edgeStyle=none;html=1;" parent="1" source="27" target="39" edge="1">
          <mxGeometry relative="1" as="geometry" />
        </mxCell>
        <mxCell id="27" value="แสดงค่าบอกว่า&lt;div&gt;&lt;span style=&quot;color: rgb(63, 63, 63); background-color: transparent;&quot;&gt;มากกว่าหรือน้อยกว่า&lt;/span&gt;&lt;div&gt;&lt;div&gt;จากตัวเลขที่เรากรอก&lt;/div&gt;&lt;/div&gt;&lt;/div&gt;&lt;div&gt;ในการเล่น&lt;/div&gt;" style="shape=parallelogram;perimeter=parallelogramPerimeter;whiteSpace=wrap;html=1;fixedSize=1;" parent="1" vertex="1">
          <mxGeometry x="530" y="755" width="140" height="55" as="geometry" />
        </mxCell>
        <mxCell id="28" value="จริง" style="text;html=1;align=center;verticalAlign=middle;whiteSpace=wrap;rounded=0;" parent="1" vertex="1">
          <mxGeometry x="320" y="1170" width="60" height="30" as="geometry" />
        </mxCell>
        <mxCell id="29" value="" style="edgeStyle=none;html=1;" parent="1" source="30" target="41" edge="1">
          <mxGeometry relative="1" as="geometry" />
        </mxCell>
        <mxCell id="30" value="&lt;div&gt;เเสดงค่าว่าตอบถูกต้อง&lt;/div&gt;" style="shape=parallelogram;perimeter=parallelogramPerimeter;whiteSpace=wrap;html=1;fixedSize=1;" parent="1" vertex="1">
          <mxGeometry x="351.75" y="930" width="164.5" height="60" as="geometry" />
        </mxCell>
        <mxCell id="31" value="" style="edgeStyle=none;html=1;" parent="1" source="33" target="37" edge="1">
          <mxGeometry relative="1" as="geometry" />
        </mxCell>
        <mxCell id="32" value="" style="edgeStyle=none;html=1;" parent="1" source="33" target="27" edge="1">
          <mxGeometry relative="1" as="geometry" />
        </mxCell>
        <mxCell id="33" value="คำตอบถูกหรือไม่" style="rhombus;whiteSpace=wrap;html=1;" parent="1" vertex="1">
          <mxGeometry x="378" y="737.5" width="117" height="90" as="geometry" />
        </mxCell>
        <mxCell id="34" value="ไม่" style="text;html=1;align=center;verticalAlign=middle;whiteSpace=wrap;rounded=0;" parent="1" vertex="1">
          <mxGeometry x="480" y="760" width="60" height="30" as="geometry" />
        </mxCell>
        <mxCell id="35" value="ใช่" style="text;html=1;align=center;verticalAlign=middle;whiteSpace=wrap;rounded=0;" parent="1" vertex="1">
          <mxGeometry x="370" y="840" width="60" height="30" as="geometry" />
        </mxCell>
        <mxCell id="36" value="" style="edgeStyle=none;html=1;" parent="1" source="37" target="30" edge="1">
          <mxGeometry relative="1" as="geometry" />
        </mxCell>
        <mxCell id="37" value="เงื่อนไข = ไม่จริง" style="rounded=0;whiteSpace=wrap;html=1;" parent="1" vertex="1">
          <mxGeometry x="379" y="870" width="110" height="30" as="geometry" />
        </mxCell>
        <mxCell id="38" style="edgeStyle=none;html=1;entryX=1;entryY=0.5;entryDx=0;entryDy=0;" parent="1" source="39" target="41" edge="1">
          <mxGeometry relative="1" as="geometry">
            <Array as="points">
              <mxPoint x="600" y="1043" />
            </Array>
          </mxGeometry>
        </mxCell>
        <mxCell id="39" value="-10 คะเเนน" style="shape=parallelogram;perimeter=parallelogramPerimeter;whiteSpace=wrap;html=1;fixedSize=1;" parent="1" vertex="1">
          <mxGeometry x="540" y="855" width="120" height="60" as="geometry" />
        </mxCell>
        <mxCell id="40" value="" style="edgeStyle=none;html=1;" parent="1" source="41" target="47" edge="1">
          <mxGeometry relative="1" as="geometry" />
        </mxCell>
        <mxCell id="41" value="" style="ellipse;whiteSpace=wrap;html=1;aspect=fixed;" parent="1" vertex="1">
          <mxGeometry x="424" y="1030" width="25" height="25" as="geometry" />
        </mxCell>
        <mxCell id="C-jSXHrrum_sfg-wVP6t-54" style="edgeStyle=orthogonalEdgeStyle;rounded=0;orthogonalLoop=1;jettySize=auto;html=1;entryX=0.5;entryY=0;entryDx=0;entryDy=0;" edge="1" parent="1" source="44" target="C-jSXHrrum_sfg-wVP6t-47">
          <mxGeometry relative="1" as="geometry" />
        </mxCell>
        <mxCell id="C-jSXHrrum_sfg-wVP6t-56" style="edgeStyle=orthogonalEdgeStyle;rounded=0;orthogonalLoop=1;jettySize=auto;html=1;entryX=0;entryY=0.5;entryDx=0;entryDy=0;exitX=0.35;exitY=0.5;exitDx=0;exitDy=0;exitPerimeter=0;" edge="1" parent="1" source="44" target="45">
          <mxGeometry relative="1" as="geometry">
            <Array as="points">
              <mxPoint x="240" y="100" />
              <mxPoint x="240" y="1275" />
            </Array>
          </mxGeometry>
        </mxCell>
        <mxCell id="44" value="" style="ellipse;whiteSpace=wrap;html=1;aspect=fixed;" parent="1" vertex="1">
          <mxGeometry x="423" y="90" width="20" height="20" as="geometry" />
        </mxCell>
        <mxCell id="45" value="" style="ellipse;whiteSpace=wrap;html=1;aspect=fixed;" parent="1" vertex="1">
          <mxGeometry x="419" y="1260" width="30" height="30" as="geometry" />
        </mxCell>
        <mxCell id="46" style="edgeStyle=none;html=1;entryX=0.5;entryY=0;entryDx=0;entryDy=0;" parent="1" source="47" target="20" edge="1">
          <mxGeometry relative="1" as="geometry" />
        </mxCell>
        <mxCell id="47" value="เเสดงคะเเนนที่เหลืออยู่" style="rounded=0;whiteSpace=wrap;html=1;" parent="1" vertex="1">
          <mxGeometry x="370" y="1080" width="126" height="40" as="geometry" />
        </mxCell>
        <mxCell id="C-jSXHrrum_sfg-wVP6t-55" style="edgeStyle=orthogonalEdgeStyle;rounded=0;orthogonalLoop=1;jettySize=auto;html=1;entryX=0.5;entryY=0;entryDx=0;entryDy=0;" edge="1" parent="1" source="C-jSXHrrum_sfg-wVP6t-47" target="9">
          <mxGeometry relative="1" as="geometry" />
        </mxCell>
        <mxCell id="C-jSXHrrum_sfg-wVP6t-47" value="ต้องการเล่นเกมส์นี้ไหม&lt;div&gt;พิมพ์ 1 ถ้าอยากเล่น&amp;nbsp;&lt;/div&gt;&lt;div&gt;-1&amp;nbsp;&lt;span style=&quot;color: rgb(63, 63, 63); background-color: transparent;&quot;&gt;ถ้าไม่อยากเล่น&lt;/span&gt;&lt;/div&gt;" style="rounded=1;whiteSpace=wrap;html=1;" vertex="1" parent="1">
          <mxGeometry x="366" y="140" width="134" height="60" as="geometry" />
        </mxCell>
        <mxCell id="C-jSXHrrum_sfg-wVP6t-50" style="edgeStyle=orthogonalEdgeStyle;rounded=0;orthogonalLoop=1;jettySize=auto;html=1;entryX=1;entryY=0.5;entryDx=0;entryDy=0;entryPerimeter=0;" edge="1" parent="1" source="11" target="4">
          <mxGeometry relative="1" as="geometry">
            <Array as="points">
              <mxPoint x="720" y="295" />
              <mxPoint x="720" y="1385" />
            </Array>
          </mxGeometry>
        </mxCell>
        <mxCell id="C-jSXHrrum_sfg-wVP6t-52" value="" style="edgeStyle=none;html=1;" edge="1" parent="1" source="17" target="23">
          <mxGeometry relative="1" as="geometry">
            <mxPoint x="425" y="560" as="sourcePoint" />
            <mxPoint x="425" y="640" as="targetPoint" />
          </mxGeometry>
        </mxCell>
        <mxCell id="23" value="" style="ellipse;whiteSpace=wrap;html=1;aspect=fixed;" parent="1" vertex="1">
          <mxGeometry x="425" y="590" width="20" height="20" as="geometry" />
        </mxCell>
      </root>
    </mxGraphModel>
  </diagram>
</mxfile>
